<?xml version="1.0" encoding="UTF-8" standalone="no"?>
<!DOCTYPE svg PUBLIC "-//W3C//DTD SVG 1.1//EN" "http://www.w3.org/Graphics/SVG/1.1/DTD/svg11.dtd">
<svg width="24px" height="24px" version="1.1" xmlns="http://www.w3.org/2000/svg" xmlns:xlink="http://www.w3.org/1999/xlink" xml:space="preserve" xmlns:serif="http://www.serif.com/" style="fill-rule:evenodd;clip-rule:evenodd;stroke-linejoin:round;stroke-miterlimit:2;">
    <g id="assign_sound">
        <path d="M9,10.022l1.5,-0l-0,-1.522l10,0l0,7l-10,-0l-0,-1.522l-1.5,0l-0,1.789c-0,0.68 0.553,1.233 1.233,1.233l10.534,0c0.68,0 1.233,-0.553 1.233,-1.233l-0,-7.534c-0,-0.68 -0.553,-1.233 -1.233,-1.233l-10.534,0c-0.68,0 -1.233,0.553 -1.233,1.233l-0,1.789Z"/>
        <path d="M13.208,11c0.386,-0.884 1.269,-1.502 2.294,-1.502c1.381,0 2.502,1.121 2.502,2.502c-0,1.381 -1.121,2.502 -2.502,2.502c-1.025,-0 -1.908,-0.618 -2.294,-1.502l-6.959,0c-0.387,0.884 -1.269,1.502 -2.294,1.502c-1.381,-0 -2.502,-1.121 -2.502,-2.502c-0,-1.381 1.121,-2.502 2.502,-2.502c1.025,0 1.907,0.618 2.294,1.502l6.959,0Zm2.292,-0.279c0.706,-0 1.279,0.573 1.279,1.279c0,0.706 -0.573,1.279 -1.279,1.279c-0.706,0 -1.279,-0.573 -1.279,-1.279c-0,-0.706 0.573,-1.279 1.279,-1.279Zm-11.506,-0c0.706,-0 1.279,0.573 1.279,1.279c0,0.706 -0.573,1.279 -1.279,1.279c-0.706,0 -1.279,-0.573 -1.279,-1.279c0,-0.706 0.573,-1.279 1.279,-1.279Z"/>
    </g>
</svg>
