<?xml version="1.0" encoding="UTF-8" standalone="no"?>
<!DOCTYPE svg PUBLIC "-//W3C//DTD SVG 1.1//EN" "http://www.w3.org/Graphics/SVG/1.1/DTD/svg11.dtd">
<svg width="24px" height="24px" version="1.1" xmlns="http://www.w3.org/2000/svg" xmlns:xlink="http://www.w3.org/1999/xlink" xml:space="preserve" xmlns:serif="http://www.serif.com/" style="fill-rule:evenodd;clip-rule:evenodd;stroke-linejoin:round;stroke-miterlimit:2;">
    <g id="jdam">
        <path d="M9.948,5.836c0.385,-1.351 0.768,-2.693 1.313,-4.606c-0.91,0.001 -1.951,0.003 -2.741,0.004c-0.014,0.646 -0.018,0.852 -0,1.65c0.431,0.726 0.84,1.963 1.428,2.952Zm4.173,0c-0.385,-1.351 -0.768,-2.693 -1.313,-4.606c0.91,0.001 1.951,-0.001 2.741,-0c0.016,0.722 0.018,0.855 -0,1.654c-0.431,0.726 -0.84,1.963 -1.428,2.952Zm-0.222,10.595l-0.004,2.082c0,0.235 -0.069,0.912 -0.137,1.364c-0.132,0.884 -0.758,2.18 -1.758,2.893c-1,-0.706 -1.624,-2.008 -1.758,-2.893c-0.068,-0.452 -0.136,-1.129 -0.136,-1.364c-0,-0.061 -0.002,-0.126 -0.002,-0.194c-0.001,-0.45 -0.002,-1.156 -0.003,-1.888c0.574,0.28 1.218,0.437 1.899,0.437c0.681,0 1.325,-0.157 1.899,-0.437Zm1.992,-5.821l5.056,-1.496l0,1.574l-4.616,2.093c0.005,-0.083 0.007,-0.167 0.007,-0.251c0,-0.689 -0.161,-1.341 -0.447,-1.92Zm-7.782,0c-0.286,0.579 -0.447,1.231 -0.447,1.92c-0,0.084 0.002,0.168 0.007,0.251l-4.616,-2.093l-0,-1.574l5.056,1.496Zm2.021,-1.995c0.19,-1.785 1.342,-5.981 1.737,-7.385l0.266,-0c0.395,1.405 1.548,5.601 1.738,7.386c-0.566,-0.272 -1.201,-0.424 -1.871,-0.424c-0.669,-0 -1.304,0.152 -1.87,0.423Zm1.997,6.393l0.6,0.335c-1.276,0.331 -2.66,-0.245 -3.299,-1.463c-0.745,-1.419 -0.198,-3.177 1.221,-3.922c1.42,-0.745 3.177,-0.198 3.923,1.221c0.551,1.049 0.396,2.283 -0.296,3.156c-0.113,0.144 -0.089,0.353 0.055,0.467c0.144,0.114 0.353,0.089 0.467,-0.054c0.849,-1.073 1.039,-2.589 0.362,-3.878c-0.916,-1.744 -3.075,-2.416 -4.819,-1.5c-1.745,0.916 -2.417,3.075 -1.501,4.819c0.916,1.745 3.075,2.417 4.819,1.501c0.108,-0.057 0.177,-0.168 0.178,-0.29c0.002,-0.122 -0.064,-0.235 -0.17,-0.294l-1.216,-0.678c-0.16,-0.089 -0.363,-0.032 -0.452,0.128c-0.089,0.16 -0.032,0.363 0.128,0.452Z"/>
    </g>
</svg>
