<?xml version="1.0" encoding="UTF-8" standalone="no"?>
<!DOCTYPE svg PUBLIC "-//W3C//DTD SVG 1.1//EN" "http://www.w3.org/Graphics/SVG/1.1/DTD/svg11.dtd">
<svg width="24px" height="24px" version="1.1" xmlns="http://www.w3.org/2000/svg" xmlns:xlink="http://www.w3.org/1999/xlink" xml:space="preserve" xmlns:serif="http://www.serif.com/" style="fill-rule:evenodd;clip-rule:evenodd;stroke-linejoin:round;stroke-miterlimit:2;">
    <g id="note">
        <path d="M7.914,17.072l0.005,-11.378c0.001,-0.257 0.171,-0.483 0.418,-0.554l11.557,-3.231c0.175,-0.05 0.362,-0.015 0.507,0.094c0.145,0.109 0.231,0.28 0.231,0.461c-0,0 -0,12.866 -0,12.899c-0,0.942 -1.223,2.433 -2.6,2.798c-1.644,0.436 -3.199,0.283 -3.639,-0.716c-0.441,-1 0.466,-2.368 2.022,-3.054c0.923,-0.406 1.867,-0.482 2.576,-0.269l0,-10.31c0,-0 -9.41,2.682 -9.41,2.682c-0,-0 -0.009,11.649 -0.009,11.667c0.006,0.934 -1.214,2.569 -2.615,2.951c-1.641,0.448 -3.199,0.284 -3.64,-0.716c-0.44,-1 0.466,-2.368 2.023,-3.054c0.921,-0.406 1.865,-0.482 2.574,-0.27Z"/>
    </g>
</svg>
