<?xml version="1.0" encoding="UTF-8" standalone="no"?>
<!DOCTYPE svg PUBLIC "-//W3C//DTD SVG 1.1//EN" "http://www.w3.org/Graphics/SVG/1.1/DTD/svg11.dtd">
<svg width="24px" height="24px" version="1.1" xmlns="http://www.w3.org/2000/svg" xmlns:xlink="http://www.w3.org/1999/xlink" xml:space="preserve" xmlns:serif="http://www.serif.com/" style="fill-rule:evenodd;clip-rule:evenodd;stroke-linejoin:round;stroke-miterlimit:2;">
    <g id="sound_list">
        <path d="M3,13l2,0l0,-2l-2,0l0,2Zm0,4l2,0l0,-2l-2,0l0,2Zm0,-8l2,0l0,-2l-2,0l0,2Zm4,4l2.021,0l-0,-2l-2.021,0l-0,2Zm-0,4l6.905,0l-2.39,-2l-4.515,0l-0,2Zm-0,-10l-0,2l4.515,0l2.39,-2l-6.905,0Zm5,3.164l-1.836,-0l-0,3.672l1.836,0l5,4.203l0,-12.078l-5,4.203Zm5.9,-4.203c2.602,0.775 4.501,3.187 4.501,6.039c-0,2.852 -1.899,5.264 -4.501,6.039l0,-1.426c1.843,-0.721 3.15,-2.516 3.15,-4.613c0,-2.097 -1.307,-3.892 -3.15,-4.613l0,-1.426Zm0,2.921c1.076,0.623 1.8,1.786 1.8,3.118c0,1.332 -0.724,2.495 -1.8,3.118l0,-1.768c0.283,-0.376 0.45,-0.844 0.45,-1.35c0,-0.506 -0.167,-0.974 -0.45,-1.35l0,-1.768Z" style="fill-rule:nonzero;"/>
    </g>
</svg>
