<?xml version="1.0" encoding="UTF-8" standalone="no"?>
<!DOCTYPE svg PUBLIC "-//W3C//DTD SVG 1.1//EN" "http://www.w3.org/Graphics/SVG/1.1/DTD/svg11.dtd">
<svg width="58px" height="16px" version="1.1" xmlns="http://www.w3.org/2000/svg" xmlns:xlink="http://www.w3.org/1999/xlink" xml:space="preserve" xmlns:serif="http://www.serif.com/" style="fill-rule:evenodd;clip-rule:evenodd;stroke-linecap:round;stroke-linejoin:round;stroke-miterlimit:2.2;">
    <g id="waveform">
        <path d="M6.5,7.528l1,-1.261l1,0.733l1.233,-4l0.767,1l1,3l1,-2l1,1.267l1,-4.267l1,4.135l1,-2.135l1,3l1,-2l1,1l1,-2l1,4l1,-2l1,1l1,-3l1,1l1,-4l1,6l1,-3l1,-1l1,4l1,1l1,-4l1,1l1,-2l1,3.267l1,-1.267l1,1.267l1,-2.267l1,1l1,2l1,-0.865l1,0.865l1,-1l1,-3l1,1l1,2.267l1,-5.267l1,4l1,-2l1,3.135l1,1.393l5,0.472l-5,0l-1,1l-1,3l-1,-2l-1,1l-1,4l-1,-3l-1,-1l-1,1l-1,-3l-1,0.865l-1,-0.865l-1,2l-1,1l-1,-2.267l-1,1.267l-1,-1.267l-1,3.267l-2,-4l-1,1l-1,0l-1,3l-1,-2l-1,2l-1,1l-1,-3l-1,1l-1,-4l-1,2l-1,-1l-1,4l-1,-2l-1,1l-1,-3l-1,2l-1,-1.135l-1,5.135l-1,-5.267l-1,1.267l-1,-2l-1,1l-0.767,3l-1.233,-4l-1,0.733l-1,-1.733l-5,0l5,-0.472Z" style="stroke:black;stroke-width:1.15px;"/>
    </g>
</svg>
